<svg width="146" height="79" viewBox="0 0 146 79" fill="none" xmlns="http://www.w3.org/2000/svg">
<path d="M67.623 4.52181C58.5517 11.297 48.1205 16.5935 38.3633 22.2917C31.7241 26.169 25.0395 29.9645 18.3736 33.7952C14.204 36.1914 9.00118 38.5493 5.38799 41.7625C1.69604 45.0458 19.9896 48.7475 20.4609 48.897C30.0064 51.9255 39.328 55.2121 47.6867 60.8405C53.1249 64.5022 60.0156 68.8134 63.456 74.5562M9.20007 41.0827C8.32127 40.8066 11.036 41.267 11.9571 41.2709C16.436 41.2899 20.9201 40.8247 25.3829 40.5345C37.7637 39.7295 50.141 39.1831 62.5472 38.9379C88.867 38.4176 115.145 38.9623 141.332 41.8122" stroke="black" stroke-width="8" stroke-linecap="round"/>
</svg>
