<svg width="1475" height="926" viewBox="0 0 1475 926" fill="none" xmlns="http://www.w3.org/2000/svg">
<path d="M1472.51 624.484C1465.74 632.852 1450.18 637.287 1440.48 640.508C1413.9 649.332 1384.24 652.918 1356.33 653.307C1334.74 653.608 1311.74 651.706 1290.57 646.954C1288.94 646.589 1272.39 645.689 1272.31 644.058C1272.05 639.239 1291.09 626.6 1294.5 623.643C1301.94 617.192 1310.44 612.537 1318.84 607.599C1319.3 607.329 1325.25 603.704 1322.96 606.419C1314.75 616.173 1301.52 621.613 1291 628.46C1280.85 635.07 1270.54 644.331 1259.11 648.302C1252.81 650.49 1290.48 709.557 1298.71 719.879" stroke="#FF3D00" stroke-width="5" stroke-linecap="round"/>
<path d="M334 481.074C341.491 510.59 352.628 536.495 371.625 560.634C391.52 585.912 416.182 619.033 450.784 623.626C466.879 625.762 487.306 625.255 502.99 620.277C504.804 619.702 476.529 602.296 471.392 599.24C462.987 594.237 467.244 597.151 474.032 601.583C482.13 606.872 491.053 615.18 499.799 619.15C505.921 621.93 505.633 624.105 501.953 627.213C492.196 635.453 483.771 645.981 476.149 656.146C471.024 662.981 467.705 671.818 461.298 677.35" stroke="#FFA501" stroke-width="5" stroke-linecap="round"/>
<path d="M879.206 922.975C898.682 908.22 906.575 894.195 916.674 866.504C927.708 836.25 930.993 816.321 933.398 781.499C934.517 765.301 932.724 744.946 926.77 729.607C926.081 727.833 910.49 757.148 907.763 762.467C903.3 771.17 905.939 766.738 909.936 759.685C914.704 751.27 922.433 741.841 925.846 732.863C928.234 726.578 930.423 726.728 933.757 730.206C942.595 739.425 953.632 747.17 964.257 754.137C971.401 758.821 980.43 761.577 986.354 767.623" stroke="#9CB700" stroke-width="5" stroke-linecap="round"/>
<path d="M1129.89 8.627V190.755" stroke="#585858" stroke-opacity="0.78" stroke-width="5" stroke-linecap="round"/>
<path d="M1019.11 102.508H1238.79" stroke="#585858" stroke-opacity="0.78" stroke-width="5" stroke-linecap="round"/>
<path d="M1113.56 20.3263C1113.56 14.5801 1122.31 13.5708 1126 9.88649C1129.1 6.7852 1129.48 4.79537 1134.03 8.8879C1137.78 12.2599 1147.05 16.2274 1148.69 21.1433" stroke="#585858" stroke-opacity="0.78" stroke-width="5" stroke-linecap="round"/>
<path d="M1227.94 89.7737C1227.94 94.8593 1229.98 99.8483 1234.89 102.029C1236.15 102.589 1240.15 103.568 1239.2 105.297C1236.55 110.126 1230.06 112.168 1226.31 115.919" stroke="#585858" stroke-opacity="0.78" stroke-width="5" stroke-linecap="round"/>
<path d="M1068.62 3.1687C1068.62 10.2244 1068.33 17.3406 1069.08 24.366C1070.31 36.0076 1075.85 47.1045 1081.7 57.0926C1087.05 66.2372 1093.88 76.2477 1102.58 82.5112C1107.94 86.3731 1112.62 91.4171 1118.46 94.4943C1121.7 96.1957 1124.86 98.761 1128.68 98.761C1135.27 98.761 1138.6 98.0544 1144.61 94.6759C1158.66 86.7706 1164.21 69.0356 1170.57 55.1862C1173.9 47.9389 1176.2 40.6147 1178.88 33.081C1180.86 27.5127 1181.61 21.8813 1183.37 16.3319C1184.68 12.2252 1183.89 6.75543 1186.28 3.1687" stroke="#AD0000" stroke-opacity="0.78" stroke-width="5" stroke-linecap="round"/>
<path d="M133.238 284.321V507.308" stroke="#585858" stroke-opacity="0.78" stroke-width="5" stroke-linecap="round"/>
<path d="M2.84749 391.09C69.256 391.09 135.864 389.454 202.213 392.56C222.376 393.503 242.497 394.869 262.684 394.869" stroke="#585858" stroke-opacity="0.78" stroke-width="5" stroke-linecap="round"/>
<path d="M109.839 304.127C110.234 301.955 112.919 299.334 114.334 297.722C116.215 295.58 118.406 293.72 120.885 292.288C121.993 291.647 123.112 291.464 124.175 290.642C125.489 289.628 126.814 288.685 128.024 287.528C129.835 285.797 131.184 284.949 133.723 285.795C141.173 288.279 147.475 294.412 153.288 299.456C154.653 300.64 156.155 301.794 157.43 303.069" stroke="#585858" stroke-opacity="0.78" stroke-width="5" stroke-linecap="round"/>
<path d="M247.741 379.921C249.654 380.113 251.928 382.969 253.362 384.091C255.542 385.797 257.645 387.336 259.972 388.817C260.867 389.386 262.673 389.824 263.246 390.763C263.59 391.326 263.686 391.999 264.003 392.57C264.758 393.93 263.783 396.074 263.076 397.125C260.231 401.358 257.085 405.047 253.486 408.646C252.576 409.556 251.37 411.048 250.242 411.612" stroke="#585858" stroke-opacity="0.78" stroke-width="5" stroke-linecap="round"/>
<path d="M39.1432 444.4C39.9412 441.473 43.1995 439.241 45.3474 437.439C57.8204 426.974 71.281 417.564 85.2965 409.293C107.793 396.016 132.901 388.646 155.661 376.002C173.663 366.001 188.086 351.056 205.144 339.684C211.796 335.25 219.37 332.041 225.724 327.276" stroke="#0B8700" stroke-opacity="0.78" stroke-width="5" stroke-linecap="round"/>
</svg>
