<svg width="140" height="78" viewBox="0 0 140 78" fill="none" xmlns="http://www.w3.org/2000/svg">
<path d="M38.3684 77.3203C29.55 78.8171 21.553 77.0188 14.3773 71.9255C7.20165 66.8322 2.86544 59.8764 1.36871 51.0581C-0.128023 42.2398 1.67025 34.2427 6.76354 27.0671C11.8568 19.8914 18.8126 15.5551 27.631 14.0584C31.1775 13.4565 34.6859 13.502 38.1564 14.1949C41.6268 14.8878 44.8512 16.1649 47.8297 18.026L59.1195 25.2808L51.8107 34.509L41.5299 27.9704C39.7685 26.8888 37.8642 26.1273 35.8171 25.6859C33.7699 25.2444 31.6919 25.2027 29.5832 25.5606C24.0238 26.5042 19.6127 29.2744 16.3498 33.8714C13.0869 38.4683 11.9273 43.5464 12.8709 49.1058C13.8145 54.6652 16.5847 59.0763 21.1816 62.3392C25.7786 65.6021 30.8567 66.7618 36.4161 65.8182C38.5248 65.4602 40.4726 64.7352 42.2595 63.643C44.0464 62.5508 45.5928 61.2036 46.8986 59.6014L84.6366 11.7788C86.8341 9.03913 89.4566 6.76968 92.5041 4.97048C95.5516 3.17127 98.8485 1.97069 102.395 1.36875C111.213 -0.127985 119.21 1.67029 126.386 6.76358C133.562 11.8569 137.898 18.8127 139.395 27.631C140.891 36.4493 139.093 44.4463 134 51.622C128.907 58.7977 121.951 63.1339 113.132 64.6307C109.586 65.2326 106.077 65.1871 102.607 64.4942C99.1366 63.8013 95.9121 62.5242 92.9337 60.663L81.6439 53.4083L88.9527 44.1801L99.2335 50.7186C100.995 51.8002 102.899 52.5618 104.946 53.0032C106.993 53.4446 109.071 53.4864 111.18 53.1285C116.74 52.1849 121.151 49.4146 124.414 44.8177C127.676 40.2208 128.836 35.1426 127.893 29.5833C126.949 24.0239 124.179 19.6127 119.582 16.3499C114.985 13.087 109.907 11.9273 104.347 12.8709C102.239 13.2288 100.291 13.9539 98.5039 15.0461C96.717 16.1382 95.1706 17.4855 93.8648 19.0877L56.1268 66.9103C53.9292 69.6499 51.3068 71.9194 48.2593 73.7186C45.2118 75.5178 41.9149 76.7184 38.3684 77.3203Z" fill="url(#paint0_linear_111_405)"/>
<defs>
<linearGradient id="paint0_linear_111_405" x1="-17.8026" y1="21.7698" x2="169.025" y2="-9.9404" gradientUnits="userSpaceOnUse">
<stop stop-color="#B70000"/>
<stop offset="1" stop-color="#FF3D00"/>
</linearGradient>
</defs>
</svg>
