<svg width="267" height="229" viewBox="0 0 267 229" fill="none" xmlns="http://www.w3.org/2000/svg">
<path d="M133.238 3.32068V226.308" stroke="#585858" stroke-opacity="0.78" stroke-width="5" stroke-linecap="round"/>
<path d="M2.84749 110.09C69.256 110.09 135.864 108.454 202.213 111.56C222.376 112.503 242.497 113.869 262.684 113.869" stroke="#585858" stroke-opacity="0.78" stroke-width="5" stroke-linecap="round"/>
<path d="M109.839 23.1266C110.234 20.9547 112.919 18.3336 114.334 16.7223C116.215 14.5804 118.406 12.72 120.885 11.2876C121.993 10.6475 123.112 10.4644 124.175 9.64246C125.489 8.62751 126.814 7.68458 128.024 6.52849C129.835 4.79741 131.184 3.94902 133.723 4.79524C141.173 7.27863 147.475 13.4121 153.288 18.4556C154.653 19.6398 156.155 20.7938 157.43 22.069" stroke="#585858" stroke-opacity="0.78" stroke-width="5" stroke-linecap="round"/>
<path d="M247.741 98.9213C249.654 99.1126 251.928 101.969 253.362 103.091C255.542 104.797 257.645 106.336 259.972 107.817C260.867 108.386 262.673 108.824 263.246 109.763C263.59 110.326 263.686 110.999 264.003 111.57C264.758 112.93 263.783 115.074 263.076 116.125C260.231 120.358 257.085 124.047 253.486 127.646C252.576 128.556 251.37 130.048 250.242 130.612" stroke="#585858" stroke-opacity="0.78" stroke-width="5" stroke-linecap="round"/>
<path d="M39.1432 163.4C39.9412 160.473 43.1995 158.241 45.3474 156.439C57.8204 145.974 71.281 136.564 85.2965 128.293C107.793 115.016 132.901 107.646 155.661 95.0018C173.663 85.0011 188.086 70.0563 205.144 58.6844C211.796 54.2498 219.37 51.0415 225.724 46.276" stroke="#0B8700" stroke-opacity="0.78" stroke-width="5" stroke-linecap="round"/>
</svg>
