<svg width="226" height="194" viewBox="0 0 226 194" fill="none" xmlns="http://www.w3.org/2000/svg">
<path d="M113.886 8.627V190.755" stroke="#585858" stroke-opacity="0.78" stroke-width="5" stroke-linecap="round"/>
<path d="M3.10718 102.508H222.788" stroke="#585858" stroke-opacity="0.78" stroke-width="5" stroke-linecap="round"/>
<path d="M97.5608 20.3263C97.5608 14.5801 106.313 13.5708 109.998 9.88649C113.099 6.7852 113.485 4.79537 118.032 8.8879C121.779 12.2599 131.054 16.2274 132.693 21.1433" stroke="#585858" stroke-opacity="0.78" stroke-width="5" stroke-linecap="round"/>
<path d="M211.945 89.7737C211.945 94.8593 213.983 99.8483 218.889 102.029C220.149 102.589 224.153 103.568 223.202 105.297C220.546 110.126 214.062 112.168 210.311 115.919" stroke="#585858" stroke-opacity="0.78" stroke-width="5" stroke-linecap="round"/>
<path d="M52.6242 3.1687C52.6242 10.2244 52.333 17.3406 53.0781 24.366C54.3128 36.0076 59.845 47.1045 65.6966 57.0926C71.0541 66.2372 77.8769 76.2477 86.5762 82.5112C91.94 86.3731 96.6162 91.4171 102.463 94.4943C105.696 96.1957 108.859 98.761 112.676 98.761C119.271 98.761 122.602 98.0544 128.608 94.6759C142.662 86.7706 148.212 69.0356 154.571 55.1862C157.899 47.9389 160.199 40.6147 162.878 33.081C164.857 27.5127 165.606 21.8813 167.371 16.3319C168.678 12.2252 167.885 6.75543 170.276 3.1687" stroke="#AD0000" stroke-opacity="0.78" stroke-width="5" stroke-linecap="round"/>
</svg>
