<svg width="125" height="89" viewBox="0 0 125 89" fill="none" xmlns="http://www.w3.org/2000/svg">
<path d="M78.9346 88.8042L36.7659 84.5747L24.4604 55.177L0.305435 52.6201L42.0182 0.611174L108.342 7.39762L124.749 46.5945L114.928 50.7057L100.776 16.8983L93.2109 26.399L105.516 55.7967L78.9346 88.8042ZM61.912 48.1374L87.9623 15.9282L46.7353 11.8803L20.685 44.0895L61.912 48.1374ZM74.2687 77.6576L93.285 54.1508L85.5429 35.6548L66.6291 59.4065L36.4354 56.2104L44.1775 74.7065L74.2687 77.6576Z" fill="url(#paint0_radial_95_38)"/>
<path d="M78.9346 88.8042L36.7659 84.5747L24.4604 55.177L0.305435 52.6201L42.0182 0.611174L108.342 7.39762L124.749 46.5945L114.928 50.7057L100.776 16.8983L93.2109 26.399L105.516 55.7967L78.9346 88.8042ZM61.912 48.1374L87.9623 15.9282L46.7353 11.8803L20.685 44.0895L61.912 48.1374ZM74.2687 77.6576L93.285 54.1508L85.5429 35.6548L66.6291 59.4065L36.4354 56.2104L44.1775 74.7065L74.2687 77.6576Z" fill="url(#paint1_radial_95_38)"/>
<defs>
<radialGradient id="paint0_radial_95_38" cx="0" cy="0" r="1" gradientUnits="userSpaceOnUse" gradientTransform="translate(60.4764 44.7077) rotate(67.2865) scale(47.8038 58.5597)">
<stop stop-color="#FFBE00"/>
<stop offset="0.465" stop-color="#B1C901"/>
<stop offset="1" stop-color="#24DFA7"/>
</radialGradient>
<radialGradient id="paint1_radial_95_38" cx="0" cy="0" r="1" gradientUnits="userSpaceOnUse" gradientTransform="translate(60.4764 44.7077) rotate(67.2865) scale(47.8038 58.5597)">
<stop stop-color="#FFBE00"/>
<stop offset="1" stop-color="#B1C901"/>
</radialGradient>
</defs>
</svg>
