<svg width="86" height="103" viewBox="0 0 86 103" fill="none" xmlns="http://www.w3.org/2000/svg">
<path d="M31.5489 5.73001C32.178 16.2675 37.2119 48.5246 38.0075 59.0478C38.7187 68.4557 39.1116 77.9024 40.3844 87.2593C40.4675 87.8704 42.0399 92.7911 41.0887 93.6458C40.1106 94.5246 35.371 93.7629 34.2514 93.7629C26.6567 93.7629 17.4115 93.6898 10.2769 96.3995C9.24308 96.7922 5.68498 99.9009 4.52534 98.7432C3.54977 97.7692 4.23189 92.7083 4.23189 92.7083V12.0285C6.12078 10.9193 11.9469 9.32107 14.0623 8.57167C19.5978 6.61074 24.7415 6.74778 30.3485 5.73001M49.9541 5.01153V38.626C49.9541 42.6325 51.5591 65.6788 51.8865 69.6742C52.6092 76.5798 52.1494 83.6902 52.1494 90.6353C52.1494 91.2482 52.0851 91.8986 52.1494 92.5085C52.1575 92.5851 56.4724 91.9188 56.8402 91.8716C59.6405 91.5122 78.7209 90.8192 81.5328 90.654C81.5328 88.955 81.4032 87.2081 81.5703 85.5215C82.3097 78.0578 81.8705 70.5769 81.8705 63.09C81.8705 49.7575 80.3507 36.4675 80.3507 23.1347C80.3507 20.7152 79.8535 11.6458 79.8535 9.22622C79.8168 8.64105 80.2565 4 79.4219 4C77.855 4 76.4066 4.17852 74.8516 4.3702L74.8155 4.37464C70.6601 4.8868 54.148 5.01153 49.9541 5.01153Z" stroke="black" stroke-width="7" stroke-linecap="round"/>
</svg>
