<svg width="505" height="186" viewBox="0 0 505 186" fill="none" xmlns="http://www.w3.org/2000/svg">
<path d="M184 180.177C193.53 179.683 203.405 176.87 212.821 175.461C253.781 169.336 294.982 164.398 336.333 161.885C363.174 160.254 389.366 161.249 416.055 163.661" stroke="#FFA501" stroke-width="5" stroke-linecap="round"/>
<path d="M338.017 182.931C337.518 182.567 352.129 179.592 353.029 179.484C374.256 176.927 394.712 178.169 415.947 179.396" stroke="#FFA501" stroke-width="5" stroke-linecap="round"/>
<g filter="url(#filter0_d_10_58)">
<path d="M155.671 52.2C159.681 52.2 163.18 52.8827 166.167 54.248C169.153 55.6133 171.436 57.4693 173.015 59.816C174.593 62.1627 175.383 64.7867 175.383 67.688C175.383 72.4667 173.889 76.2213 170.903 78.952C167.916 81.64 162.839 82.984 155.671 82.984H147.223V95.272C147.223 95.7413 147.052 96.1467 146.711 96.488C146.369 96.8293 145.964 97 145.495 97H131.735C131.265 97 130.86 96.8293 130.519 96.488C130.177 96.1467 130.007 95.7413 130.007 95.272V53.928C130.007 53.4587 130.177 53.0533 130.519 52.712C130.86 52.3707 131.265 52.2 131.735 52.2H155.671ZM155.415 71.144C156.439 71.144 157.249 70.8453 157.847 70.248C158.444 69.608 158.743 68.776 158.743 67.752C158.743 66.6853 158.444 65.8107 157.847 65.128C157.249 64.4453 156.439 64.104 155.415 64.104H147.287V71.144H155.415ZM226.942 83.88C227.411 83.88 227.816 84.0507 228.158 84.392C228.499 84.7333 228.67 85.1387 228.67 85.608V95.272C228.67 95.7413 228.499 96.1467 228.158 96.488C227.816 96.8293 227.411 97 226.942 97H189.566C189.096 97 188.691 96.8293 188.35 96.488C188.008 96.1467 187.838 95.7413 187.838 95.272V53.928C187.838 53.4587 188.008 53.0533 188.35 52.712C188.691 52.3707 189.096 52.2 189.566 52.2H203.39C203.859 52.2 204.264 52.3707 204.606 52.712C204.947 53.0533 205.118 53.4587 205.118 53.928V83.88H226.942ZM253.797 94.824C253.242 96.2747 252.282 97 250.917 97H238.821C238.437 97 238.095 96.872 237.797 96.616C237.541 96.3173 237.413 95.976 237.413 95.592L237.477 95.208L251.429 54.312C251.599 53.7573 251.919 53.2667 252.389 52.84C252.858 52.4133 253.498 52.2 254.309 52.2H272.101C272.911 52.2 273.551 52.4133 274.021 52.84C274.49 53.2667 274.81 53.7573 274.981 54.312L288.933 95.208L288.997 95.592C288.997 95.976 288.847 96.3173 288.549 96.616C288.293 96.872 287.973 97 287.589 97H275.493C274.127 97 273.167 96.2747 272.613 94.824L271.013 90.344H255.397L253.797 94.824ZM263.205 64.552L258.661 77.864H267.749L263.205 64.552ZM343.371 52.2C343.755 52.2 344.075 52.3493 344.332 52.648C344.63 52.904 344.779 53.2027 344.779 53.544C344.779 53.8 344.715 54.056 344.588 54.312L328.459 81V95.272C328.459 95.7413 328.289 96.1467 327.947 96.488C327.606 96.8293 327.201 97 326.731 97H313.099C312.63 97 312.225 96.8293 311.883 96.488C311.542 96.1467 311.371 95.7413 311.371 95.272V81L295.307 54.312C295.179 54.056 295.115 53.8213 295.115 53.608C295.115 53.224 295.243 52.904 295.499 52.648C295.798 52.3493 296.139 52.2 296.523 52.2H310.027C311.222 52.2 312.097 52.6907 312.651 53.672L319.883 66.344L327.307 53.8C327.947 52.7333 328.843 52.2 329.995 52.2H343.371ZM383.41 52.2C383.88 52.2 384.285 52.3707 384.626 52.712C384.968 53.0533 385.138 53.5013 385.138 54.056L385.074 78.44C385.074 78.8667 384.904 79.2507 384.562 79.592C384.221 79.8907 383.816 80.04 383.346 80.04H370.418C369.949 80.04 369.544 79.8693 369.202 79.528C368.861 79.1867 368.69 78.76 368.69 78.248V54.184C368.69 53.5867 368.84 53.1173 369.138 52.776C369.48 52.392 369.906 52.2 370.418 52.2H383.41ZM383.346 82.728C383.816 82.728 384.221 82.8987 384.562 83.24C384.904 83.5813 385.074 83.9867 385.074 84.456V95.272C385.074 95.7413 384.904 96.1467 384.562 96.488C384.221 96.8293 383.816 97 383.346 97H370.418C369.949 97 369.544 96.8293 369.202 96.488C368.861 96.1467 368.69 95.7413 368.69 95.272V84.456C368.69 83.9867 368.861 83.5813 369.202 83.24C369.544 82.8987 369.949 82.728 370.418 82.728H383.346Z" fill="url(#paint0_linear_10_58)"/>
</g>
<path d="M270.401 2.5C228.014 2.5 130.892 28.874 93.5786 53.0388C79.6311 62.0714 65.9095 76.9625 62.3914 93.6732C57.8545 115.224 73.1302 133.29 92.4404 140.568C110.182 147.254 129.833 148.69 148.554 150.015C183.944 152.519 219.615 152.935 254.978 149.844C318.561 144.287 385.08 130.016 443.068 102.608C461.894 93.7104 486.886 83.7542 497.646 64.421C499.66 60.8023 501.733 55.6343 501.63 51.3884C501.443 43.7483 488.744 40.2997 483.304 38.5834C460.925 31.5233 436.845 29.0697 413.645 26.5183C366.059 21.2849 318.195 18.9866 270.401 16.6158C233.093 14.7653 195.377 11.9117 158.002 13.4288C134.265 14.3923 111.599 19.8287 89.1395 27.3151C61.9388 36.382 32.7341 48.3141 13.6757 70.6812C7.14742 78.3429 -3.58719 95.1105 8.43993 102.893C19.3256 109.936 34.6925 112.032 47.0255 114.616C83.2776 122.213 119.979 126.051 156.977 127.364C208.286 129.186 259.986 127.955 310.864 120.649C345.735 115.641 381.819 108.887 415.011 96.7463C430.719 91.0011 446.602 83.4744 458.946 71.9332C466.379 64.9836 476.164 51.7733 469.418 41.0875C466.415 36.3302 459.755 32.3973 454.963 30.3883C435.593 22.2684 413.319 19.3936 392.702 17.0711C332.494 10.2888 272.795 14.6602 212.522 17.0711" stroke="#B70000" stroke-width="5" stroke-linecap="round"/>
<defs>
<filter id="filter0_d_10_58" x="127.007" y="52.2" width="258.132" height="48.8" filterUnits="userSpaceOnUse" color-interpolation-filters="sRGB">
<feFlood flood-opacity="0" result="BackgroundImageFix"/>
<feColorMatrix in="SourceAlpha" type="matrix" values="0 0 0 0 0 0 0 0 0 0 0 0 0 0 0 0 0 0 127 0" result="hardAlpha"/>
<feOffset dx="-3" dy="4"/>
<feComposite in2="hardAlpha" operator="out"/>
<feColorMatrix type="matrix" values="0 0 0 0 0.719401 0 0 0 0 0 0 0 0 0 0 0 0 0 1 0"/>
<feBlend mode="normal" in2="BackgroundImageFix" result="effect1_dropShadow_10_58"/>
<feBlend mode="normal" in="SourceGraphic" in2="effect1_dropShadow_10_58" result="shape"/>
</filter>
<linearGradient id="paint0_linear_10_58" x1="93" y1="77" x2="433" y2="77" gradientUnits="userSpaceOnUse">
<stop stop-color="#FF3D00"/>
<stop offset="0.225" stop-color="#FF7A00"/>
<stop offset="0.5" stop-color="#F6CE00"/>
<stop offset="0.75" stop-color="#00DB8C"/>
<stop offset="1" stop-color="#0038FF"/>
</linearGradient>
</defs>
</svg>
